<?xml version="1.0" encoding="UTF-8" standalone="no"?>
<!DOCTYPE svg PUBLIC "-//W3C//DTD SVG 1.1//EN" "http://www.w3.org/Graphics/SVG/1.1/DTD/svg11.dtd">
<svg width="100%" height="100%" viewBox="0 0 232 30" version="1.1" xmlns="http://www.w3.org/2000/svg" xmlns:xlink="http://www.w3.org/1999/xlink" xml:space="preserve" xmlns:serif="http://www.serif.com/" style="fill-rule:evenodd;clip-rule:evenodd;stroke-linejoin:round;stroke-miterlimit:2;">
    <path d="M12.99,0.406C13.128,0.232 13.339,0.13 13.561,0.13L14.758,0.13C14.98,0.131 15.19,0.232 15.328,0.406L16.662,2.081C16.707,2.077 16.753,2.074 16.798,2.074C17.557,2.074 18.182,2.699 18.182,3.458C18.182,4.218 17.557,4.842 16.798,4.842C16.039,4.842 15.414,4.218 15.414,3.458C15.414,3.291 15.445,3.125 15.504,2.968L14.406,1.59L13.913,1.59L12.816,2.969C12.876,3.126 12.906,3.293 12.906,3.46C12.906,4.22 12.281,4.844 11.522,4.844C10.763,4.844 10.138,4.22 10.138,3.46C10.138,2.701 10.763,2.076 11.522,2.076C11.567,2.076 11.612,2.079 11.657,2.083L12.99,0.405L12.99,0.406ZM10.707,7.196C10.569,7.02 10.357,6.916 10.133,6.916L9.239,6.916C8.992,6.916 8.761,7.042 8.627,7.25L7.21,9.443C7.053,9.687 7.055,10.002 7.216,10.243L8.635,12.374L8.361,13.962L7.045,15.252C6.949,15.347 6.881,15.466 6.848,15.597L6.222,18.131C6.212,18.178 6.208,18.227 6.208,18.275C6.208,18.676 6.537,19.005 6.938,19.005C7.261,19.005 7.547,18.791 7.638,18.481L8.214,16.148L9.55,14.84C9.659,14.733 9.732,14.594 9.758,14.444L10.121,12.337C10.153,12.153 10.113,11.964 10.01,11.809L8.695,9.833L9.636,8.375L9.778,8.375L11.968,11.173L11.003,18.767L2.501,23.605L5.384,14.272C6.009,14.127 6.456,13.565 6.456,12.923C6.456,12.163 5.83,11.538 5.071,11.538C4.311,11.538 3.686,12.163 3.686,12.923C3.686,13.244 3.798,13.556 4.002,13.804L0.564,24.935C0.543,25.004 0.532,25.077 0.532,25.15C0.532,25.55 0.861,25.88 1.262,25.88C1.388,25.88 1.511,25.847 1.621,25.785L12.041,19.855C12.24,19.742 12.375,19.541 12.404,19.313L12.966,14.887L15.352,14.887L15.914,19.313C15.943,19.54 16.077,19.741 16.276,19.855L26.696,25.785C26.806,25.847 26.93,25.88 27.056,25.88C27.457,25.88 27.786,25.551 27.786,25.15C27.786,25.077 27.776,25.005 27.754,24.935L24.316,13.804C24.52,13.556 24.632,13.245 24.632,12.924C24.632,12.165 24.007,11.54 23.248,11.54C22.489,11.54 21.864,12.165 21.864,12.924C21.864,13.565 22.309,14.127 22.934,14.272L25.817,23.605L17.315,18.767L16.351,11.173L18.541,8.375L18.681,8.375L19.623,9.833L18.308,11.808C18.205,11.963 18.165,12.152 18.197,12.336L18.56,14.443C18.586,14.593 18.659,14.733 18.768,14.839L20.104,16.149L20.68,18.481C20.748,18.82 21.049,19.067 21.396,19.067C21.796,19.067 22.126,18.737 22.126,18.337C22.126,18.267 22.116,18.198 22.096,18.131L21.47,15.597C21.438,15.466 21.369,15.346 21.273,15.251L19.957,13.962L19.683,12.374L21.103,10.243C21.263,10.002 21.265,9.686 21.108,9.443L19.69,7.25C19.556,7.042 19.325,6.916 19.078,6.916L18.184,6.916C17.96,6.916 17.748,7.02 17.61,7.196L15.013,10.513C14.893,10.666 14.839,10.862 14.864,11.055L15.164,13.421L13.151,13.421L13.451,11.055C13.476,10.862 13.422,10.666 13.302,10.513L10.706,7.196L10.707,7.196ZM12.126,23.515C12.339,23.381 12.469,23.146 12.469,22.894C12.469,22.492 12.138,22.161 11.736,22.161C11.598,22.161 11.463,22.2 11.346,22.273L9.972,23.136C9.678,23.321 9.554,23.69 9.676,24.015L10.816,27.048C10.872,27.198 10.976,27.326 11.113,27.412L13.555,28.942C13.676,29.024 13.819,29.067 13.965,29.067C14.367,29.067 14.698,28.736 14.698,28.334C14.698,28.074 14.559,27.832 14.334,27.701L12.1,26.3L11.258,24.058L12.125,23.514L12.126,23.515ZM14.034,21.137C14.248,20.797 14.704,20.693 15.044,20.907L18.346,22.98C18.639,23.165 18.763,23.53 18.643,23.855L17.535,26.855C17.429,27.142 17.154,27.334 16.847,27.334C16.71,27.334 16.575,27.295 16.458,27.222L14.968,26.289C14.81,26.349 14.643,26.38 14.474,26.38C13.715,26.38 13.09,25.755 13.09,24.996C13.09,24.237 13.715,23.612 14.474,23.612C15.233,23.612 15.858,24.237 15.858,24.996C15.858,25.035 15.856,25.075 15.853,25.114L16.473,25.501L17.062,23.905L14.264,22.148C13.924,21.934 13.82,21.478 14.034,21.138L14.034,21.137ZM13.082,5.647C12.952,5.484 12.754,5.389 12.545,5.389C12.169,5.389 11.859,5.699 11.859,6.075C11.859,6.23 11.912,6.381 12.009,6.503L13.623,8.527C13.753,8.69 13.951,8.785 14.16,8.785C14.368,8.785 14.566,8.69 14.696,8.527L16.31,6.503C16.407,6.381 16.46,6.23 16.46,6.075C16.46,5.699 16.15,5.389 15.774,5.389C15.565,5.389 15.367,5.484 15.237,5.647L14.159,7L13.082,5.648L13.082,5.647Z" style="fill:rgb(33,244,219);"/>
    <path d="M133.853,12.993L133.685,12.951C131.298,12.356 129.355,11.871 129.355,9.774C129.355,8.112 130.611,7.227 132.995,7.227C135.809,7.227 137.121,8.487 137.414,10.795L140.494,10.795C140.202,6.935 137.361,4.709 132.995,4.709C128.872,4.709 126.301,6.612 126.301,9.936C126.301,13.582 129.588,14.573 132.593,15.353L133.099,15.481C136.257,16.277 137.949,16.705 137.949,19.026C137.949,20.766 136.986,22.109 133.935,22.109C130.345,22.109 128.819,20.365 128.602,17.791L125.551,17.791C125.738,22.109 129.168,24.627 134.014,24.627C138.781,24.627 141.03,22.162 141.03,18.864C141.03,14.82 137.548,13.931 133.853,12.994L133.853,12.993ZM40.519,12.952L40.685,12.993C44.381,13.931 47.862,14.82 47.862,18.864C47.862,22.162 45.61,24.627 40.842,24.627C35.996,24.627 32.567,22.109 32.38,17.792L35.434,17.792C35.648,20.365 37.174,22.109 40.764,22.109C43.818,22.109 44.782,20.767 44.782,19.026C44.782,16.705 43.089,16.278 39.932,15.481L39.426,15.353C36.417,14.573 33.129,13.583 33.129,9.936C33.129,6.612 35.701,4.71 39.827,4.71C44.193,4.71 47.031,6.934 47.327,10.795L44.246,10.795C43.95,8.488 42.638,7.227 39.826,7.227C37.443,7.227 36.184,8.112 36.184,9.774C36.184,11.872 38.128,12.356 40.519,12.952ZM196.652,5.299L199.625,5.299L199.625,8.139L196.652,8.139L196.652,5.299ZM61.949,22.646C61.439,22.646 61.292,22.136 61.292,21.142L61.292,14.869C61.292,11.331 59.04,10.153 56.228,10.153C52.053,10.153 50.337,12.217 50.205,14.843L52.881,14.843C53.016,13.02 53.736,12.269 56.12,12.269C58.132,12.269 58.72,13.099 58.72,14.092C58.72,15.432 57.406,15.702 55.265,16.1C51.862,16.758 49.561,17.657 49.561,20.708C49.561,23.041 51.303,24.628 54.035,24.628C56.258,24.628 57.81,23.738 58.721,22.323L58.773,22.323C58.908,23.877 59.628,24.387 60.917,24.387C61.369,24.385 61.819,24.331 62.258,24.226L62.258,22.616C62.157,22.636 62.053,22.646 61.949,22.646ZM58.737,18.917C58.737,21.307 56.995,22.507 54.64,22.507C52.996,22.507 52.339,21.813 52.339,20.533C52.339,19.111 53.325,18.47 55.739,17.96C57.133,17.663 58.313,17.37 58.74,16.972L58.737,18.917ZM67.183,24.252L64.553,24.252L64.553,10.58L67.183,10.58L67.183,12.294L67.235,12.294C67.958,11.248 69.379,10.178 71.736,10.178C74.255,10.178 76.29,11.623 76.29,14.763L76.29,24.251L73.636,24.251L73.636,15.483C73.636,13.663 72.851,12.429 70.878,12.429C68.629,12.429 67.183,13.795 67.183,15.859L67.183,24.252ZM88.873,5.084L88.873,12.239L88.818,12.239C88.094,11.169 86.753,10.179 84.613,10.179C81.131,10.179 78.507,12.914 78.507,17.419C78.507,21.925 81.137,24.633 84.613,24.633C86.25,24.694 87.819,23.957 88.818,22.659L88.874,22.659L88.874,24.265L91.537,24.265L91.537,5.085L88.874,5.085L88.873,5.084ZM85.04,22.454C82.469,22.454 81.24,20.098 81.24,17.416C81.24,14.734 82.469,12.377 85.04,12.377C87.397,12.377 88.874,14.307 88.874,17.417C88.874,20.527 87.397,22.455 85.04,22.455L85.04,22.454ZM98.071,12.753L98.071,24.252L95.444,24.252L95.444,12.752L93.57,12.752L93.57,10.581L95.444,10.581L95.444,8.919C95.444,5.753 96.756,4.897 98.982,4.897C99.538,4.909 100.094,4.963 100.642,5.058L100.642,7.175C100.269,7.128 99.894,7.101 99.518,7.095C98.42,7.095 98.071,7.415 98.071,8.863L98.071,10.581L100.642,10.581L100.642,12.753L98.071,12.753ZM105.275,5.084L102.652,5.084L102.652,24.252L105.275,24.252L105.275,5.084ZM109.744,26.799C110.813,26.799 112.019,26.263 112.581,24.12L107.041,10.58L109.905,10.58L113.897,21.037L113.962,21.037L117.74,10.581L120.472,10.581L115.074,24.574C113.732,27.951 112.42,29.05 110.306,29.05C109.738,29.049 109.171,28.986 108.616,28.863L108.616,26.72C108.99,26.772 109.367,26.798 109.744,26.8L109.744,26.799ZM149.544,10.156C153.7,10.156 156.024,12.888 156.024,17.123L156.024,17.124C156.024,17.496 156.024,17.897 156.001,18.124L145.5,18.124C145.555,20.428 146.894,22.517 149.596,22.517C152.01,22.517 152.92,20.967 153.187,20.052L155.837,20.052C155.133,22.685 153.134,24.66 149.544,24.66C145.207,24.66 142.797,21.576 142.797,17.396C142.797,13.102 145.388,10.156 149.544,10.156ZM149.468,12.299C147.272,12.299 145.664,13.799 145.503,16.054L153.269,16.054C153.269,13.908 151.799,12.299 149.468,12.299ZM167.833,15.54L170.566,15.54C170.237,12.457 167.912,10.18 164.404,10.18C160.36,10.18 157.71,13.141 157.71,17.42C157.71,21.698 160.36,24.66 164.43,24.66C167.912,24.66 170.378,22.33 170.566,19.194L167.833,19.194C167.725,20.747 166.923,22.462 164.404,22.462C161.511,22.462 160.459,19.997 160.459,17.422C160.459,14.849 161.527,12.355 164.404,12.355C166.923,12.348 167.725,14.119 167.833,15.54ZM175.314,10.58L175.314,19.319C175.314,21.169 176.116,22.389 178.073,22.402C180.322,22.402 181.768,21.036 181.768,18.97L181.768,10.58L184.399,10.58L184.399,24.252L181.768,24.252L181.768,22.537L181.716,22.537C180.992,23.584 179.572,24.627 177.215,24.627C174.699,24.627 172.661,23.179 172.661,20.043L172.661,10.58L175.314,10.58ZM187.169,10.58L187.169,24.252L189.799,24.252L189.799,17.176C189.799,14.573 191.515,12.779 193.899,12.779C194.195,12.782 194.491,12.809 194.783,12.859L194.783,10.337C194.366,10.282 193.945,10.256 193.524,10.258C191.676,10.258 190.565,11.466 189.855,13.181L189.799,13.181L189.799,10.581L187.169,10.581L187.169,10.58ZM196.837,10.58L199.461,10.58L199.461,24.255L196.837,24.255L196.837,10.58ZM201.612,10.58L201.612,12.753L203.585,12.753L203.585,20.391C203.585,23.554 204.953,24.413 207.175,24.413C207.742,24.421 208.307,24.367 208.862,24.252L208.862,22.136C208.492,22.207 208.115,22.243 207.738,22.241C206.613,22.241 206.212,21.911 206.212,20.474L206.212,12.753L208.842,12.753L208.842,10.58L206.212,10.58L206.212,6.184L203.582,6.184L203.582,10.581L201.612,10.581L201.612,10.58ZM213.053,26.508C214.114,26.508 215.305,25.977 215.862,23.856L210.371,10.453L213.203,10.453L217.151,20.803L217.206,20.803L220.952,10.453L223.657,10.453L218.329,24.305C217.001,27.648 215.702,28.736 213.61,28.736C213.048,28.735 212.488,28.673 211.94,28.551L211.94,26.43C212.309,26.48 212.681,26.507 213.053,26.508Z" style="fill:white;"/>
    <path d="M225.348,7.851L225.348,5.45L226.565,5.45C226.676,5.453 226.785,5.482 226.884,5.534C227.145,5.66 227.308,5.928 227.301,6.218C227.305,6.377 227.261,6.534 227.174,6.667C227.095,6.783 226.989,6.878 226.865,6.943C226.761,7.002 226.645,7.034 226.526,7.038L225.648,7.038L225.648,6.648L226.363,6.648C226.435,6.648 226.512,6.611 226.594,6.54C226.679,6.468 226.721,6.36 226.721,6.218C226.721,6.07 226.679,5.97 226.594,5.918C226.53,5.872 226.455,5.845 226.376,5.84L225.875,5.84L225.875,7.851L225.348,7.851ZM226.799,6.719L227.398,7.851L226.819,7.851L226.233,6.719L226.799,6.719ZM226.259,9.283C225.899,9.283 225.562,9.216 225.247,9.081C224.621,8.816 224.122,8.317 223.858,7.691C223.722,7.371 223.653,7.027 223.656,6.68C223.656,6.32 223.723,5.982 223.858,5.668C224.122,5.042 224.621,4.543 225.247,4.278C225.567,4.143 225.912,4.074 226.259,4.077C226.619,4.077 226.957,4.144 227.271,4.278C227.897,4.543 228.396,5.042 228.661,5.668C228.795,5.982 228.862,6.32 228.862,6.68C228.862,7.04 228.795,7.377 228.661,7.692C228.396,8.318 227.897,8.817 227.271,9.082C226.951,9.217 226.606,9.285 226.259,9.282L226.259,9.283ZM226.259,8.658C226.624,8.658 226.956,8.569 227.255,8.391C227.554,8.213 227.793,7.975 227.971,7.675C228.149,7.376 228.238,7.045 228.238,6.68C228.238,6.315 228.149,5.983 227.971,5.684C227.797,5.389 227.55,5.142 227.255,4.968C226.954,4.789 226.609,4.697 226.259,4.701C225.909,4.697 225.565,4.79 225.264,4.968C224.964,5.146 224.726,5.385 224.548,5.684C224.37,5.984 224.281,6.315 224.281,6.68C224.281,7.044 224.37,7.376 224.548,7.675C224.726,7.975 224.964,8.213 225.264,8.391C225.563,8.569 225.895,8.658 226.259,8.658Z" style="fill:white;fill-rule:nonzero;"/>
</svg>
